<svg xmlns="http://www.w3.org/2000/svg" version="1.1" xmlns:xlink="http://www.w3.org/1999/xlink" xmlns:svgjs="http://svgjs.dev/svgjs" width="100%" height="100%" viewBox="0 0 1000 600"><rect width="1000" height="600" x="0" y="0" fill="#191919"/><g><rect width="333.3333333333333" height="333.3333333333333" rx="13.333333333333334" ry="13.333333333333334" y="176.34378972390294" fill="#b88746" transform="matrix(0.8110480479305107,0,0,0.8110480479305107,0,21.802034954724476)" x="154.12156677246094"/><path d="M376.38337431247885 268.01045798749226L397.42913919450734 268.01045798749226L397.42913919450734 418.0104589063274L377.7081434896022 418.0104589063274L377.7081434896022 306.1577886105682L327.84864900514003 418.0104589063274L313.96868103573354 418.0104589063274L263.8984278185471 305.947029877844L263.8984278185471 418.0104589063274L244.14732372325284 418.0104589063274L244.14732372325284 268.01045798749226L265.40384733800545 268.01045798749226L320.89361082524215 391.99680961008625L376.38337431247885 268.01045798749226Z " fill="#191919" transform="matrix(0.8110480479305107,0,0,0.8110480479305107,0,21.802034954724476)"/><path d="M689.6194022268139 281.4574343029075L708.5317390563107 281.4574343029075L708.5317390563107 416.25180066135243L690.8098783648652 416.25180066135243L690.8098783648652 315.737735823612L646.0046855327525 416.25180066135243L633.5317423590787 416.25180066135243L588.5371555959125 315.5483418925583L588.5371555959125 416.25180066135243L570.7882386286022 416.25180066135243L570.7882386286022 281.4574343029075L589.8899693891526 281.4574343029075L639.7546858079833 392.8751783141633L689.6194022268139 281.4574343029075ZM747.6821702326796 292.1717195453692Q742.6226466459616 292.1717195453692 739.1053307835373 288.6544036829449Q735.6150711969777 285.1370878205206 735.6150711969777 280.0775642338026L735.6150711969777 280.0775642338026Q735.6150711969777 275.0180406470845 739.1053307835373 271.50072478466024Q742.6226466459616 268.01046519810075 747.6821702326796 268.01046519810075L747.6821702326796 268.01046519810075Q752.552299888344 268.01046519810075 755.9613906473091 271.50072478466024Q759.3704814062742 275.0180406470845 759.3704814062742 280.0775642338026L759.3704814062742 280.0775642338026Q759.3704814062742 285.1370878205206 755.9613906473091 288.6544036829449Q752.552299888344 292.1717195453692 747.6821702326796 292.1717195453692L747.6821702326796 292.1717195453692ZM738.5371489903764 309.4877360988427L756.2590096818219 309.4877360988427L756.2590096818219 416.25180066135243L738.5371489903764 416.25180066135243L738.5371489903764 309.4877360988427ZM779.8250259600647 362.680374449044Q779.8250259600647 346.1219336197849 786.4538135469413 333.7572155495703Q793.0826011338179 321.39249747935565 804.8520811350069 314.5743159614255Q816.6486174120606 307.7561344434953 831.8271881722146 307.7561344434953L831.8271881722146 307.7561344434953Q851.5241570017909 307.7561344434953 864.2676629341126 317.2799435479057Q877.0382251422993 326.83080892818094 881.1237227978845 343.795093895412L881.1237227978845 343.795093895412L862.021992037334 343.795093895412Q859.3163644508538 334.05483458408315 851.4159318983316 328.4000729283395Q843.5154993458093 322.74531127259576 831.8271881722146 322.74531127259576L831.8271881722146 322.74531127259576Q816.6486174120606 322.74531127259576 807.2871459628391 333.16197748054464Q797.9527307894823 343.5786436884935 797.9527307894823 362.680374449044L797.9527307894823 362.680374449044Q797.9527307894823 381.97149914064795 807.2871459628391 392.4963904520561Q816.6486174120606 402.9942254875994 831.8271881722146 402.9942254875994L831.8271881722146 402.9942254875994Q843.5154993458093 402.9942254875994 851.3077067948724 397.5559140387741Q859.0999142439355 392.09054631408407 862.021992037334 381.97149914064795L862.021992037334 381.97149914064795L881.1237227978845 381.97149914064795Q876.8488312112457 398.34054603885335 863.9700438995999 408.1619741777766Q851.1183128638188 418.0104585925646 831.8271881722146 418.0104585925646L831.8271881722146 418.0104585925646Q816.6486174120606 418.0104585925646 804.8520811350069 411.19227707463443Q793.0826011338179 404.3740955567043 786.4538135469413 391.9011523830305Q779.8250259600647 379.42820920935657 779.8250259600647 362.680374449044L779.8250259600647 362.680374449044ZM957.692983495275 307.53968423657693Q969.7600825309769 307.53968423657693 979.5003418423056 312.70743292675417Q989.2406011536343 317.87518161693134 994.7871377059189 328.2106789972858Q1000.3336742582035 338.5191201017755 1000.3336742582035 353.31890299982234L1000.3336742582035 353.31890299982234L1000.3336742582035 416.25180066135243L982.8012074978114 416.25180066135243L982.8012074978114 355.8621929311137Q982.8012074978114 339.8989901708804 974.8196061176948 331.4033195493325Q966.8380047375781 322.93470520364934 953.0122477706642 322.93470520364934L953.0122477706642 322.93470520364934Q938.9700405968317 322.93470520364934 930.6908201822023 331.70093858384536Q922.4115997675727 340.46717196404126 922.4115997675727 357.21500672435394L922.4115997675727 357.21500672435394L922.4115997675727 416.25180066135243L904.6897390761272 416.25180066135243L904.6897390761272 272.09596285368593L922.4115997675727 272.09596285368593L922.4115997675727 324.6933631348615Q927.6875735612091 316.52236782369124 936.9408199069716 312.0310260301341Q946.194066252734 307.53968423657693 957.692983495275 307.53968423657693L957.692983495275 307.53968423657693ZM1078.8509868178594 324.09812506583586L1050.9830226771132 324.09812506583586L1050.9830226771132 387.03102272736606Q1050.9830226771132 394.82323017642904 1054.310944608484 398.04292700434047Q1057.6118102639898 401.262623832252 1065.8098618510248 401.262623832252L1065.8098618510248 401.262623832252L1078.8509868178594 401.262623832252L1078.8509868178594 416.25180066135243L1062.8877840576263 416.25180066135243Q1048.0609448837147 416.25180066135243 1040.6745815726235 409.4336191434223Q1033.2611619856677 402.6154376254921 1033.2611619856677 387.03102272736606L1033.2611619856677 387.03102272736606L1033.2611619856677 324.09812506583586L1019.4354050187538 324.09812506583586L1019.4354050187538 309.4877360988427L1033.2611619856677 309.4877360988427L1033.2611619856677 282.620854165094L1050.9830226771132 282.620854165094L1050.9830226771132 309.4877360988427L1078.8509868178594 309.4877360988427L1078.8509868178594 324.09812506583586Z " fill="#b88746" transform="matrix(0.8110480479305107,0,0,0.8110480479305107,0,21.802034954724476)"/></g></svg>